PathFileType	4	(x/y/z)	S04_P20_T18.trc
DataRate	CameraRate	NumFrames	NumMarkers	Units	OrigDataRate	OrigDataStartFrame	OrigNumFrames
240	240	6	51	mm	240	273	363
Frame#	Time	Sternum			R.Acromium			L.Acromium			Top.Head			R.ASIS			L.ASIS			R.PSIS			L.PSIS			R.Great.Tro			L.Great.Tro			R.Iliac.Crest			L.Iliac.Crest			V.Sacral			R.Thigh.Upper.Post			R.Thigh.Lower.Ant			R.Thigh.Lower.Post			R.Thigh.Upper.Ant			R.Knee.Lat			R.Knee.Med			R.Shank.Upper.Post			R.Shank.Lower.Ant			R.Shank.Lower.Post			R.Shank.Upper.Ant			R.Ankle.Lat			R.Ankle.Med			R.Heel.Upper			R.Heel.Med			R.Heel.Lat			R.Toe.Lat			R.Toe.Med			R.Toe.Tip			L.Thigh.Upper.Post			L.Thigh.Lower.Ant			L.Thigh.Lower.Post			L.Thigh.Upper.Ant			L.Knee.Lat			L.Knee.Med			L.Shank.Upper.Post			L.Shank.Lower.Ant			L.Shank.Lower.Post			L.Shank.Upper.Ant			L.Ankle.Lat			L.Ankle.Med			L.Heel.Upper			L.Heel.Med			L.Heel.Lat			L.Toe.Lat			L.Toe.Med			L.Toe.Tip			Cervical.Spine			Back			
		X1	Y1	Z1	X2	Y2	Z2	X3	Y3	Z3	X4	Y4	Z4	X5	Y5	Z5	X6	Y6	Z6	X7	Y7	Z7	X8	Y8	Z8	X9	Y9	Z9	X10	Y10	Z10	X11	Y11	Z11	X12	Y12	Z12	X13	Y13	Z13	X14	Y14	Z14	X15	Y15	Z15	X16	Y16	Z16	X17	Y17	Z17	X18	Y18	Z18	X19	Y19	Z19	X20	Y20	Z20	X21	Y21	Z21	X22	Y22	Z22	X23	Y23	Z23	X24	Y24	Z24	X25	Y25	Z25	X26	Y26	Z26	X27	Y27	Z27	X28	Y28	Z28	X29	Y29	Z29	X30	Y30	Z30	X31	Y31	Z31	X32	Y32	Z32	X33	Y33	Z33	X34	Y34	Z34	X35	Y35	Z35	X36	Y36	Z36	X37	Y37	Z37	X38	Y38	Z38	X39	Y39	Z39	X40	Y40	Z40	X41	Y41	Z41	X42	Y42	Z42	X43	Y43	Z43	X44	Y44	Z44	X45	Y45	Z45	X46	Y46	Z46	X47	Y47	Z47	X48	Y48	Z48	X49	Y49	Z49	X50	Y50	Z50	X51	Y51	Z51	

273	1.1333	147.6	1275.4	241.26	35.195	1503.3	424.57	-0.18274	1483.9	74.106	44.903	1828.6	232.69	114.89	987.73	386.17	114.27	1016.7	138.31	-98.744	1018.3	286.19	-92.425	1027.5	205.38	28.23	902.66	444.06	8.0906	925	68.253	28.003	1079.6	428.05	10.102	1090.2	91.959	-114.7	980.18	243.5	55.298	644.21	442.75	144.2	571.31	422.58	68.021	554.69	430.4	136.99	681.12	438.16	85.72	489.63	426.57	85.121	483.79	290.54	-120.29	386.34	412.07	-130.04	281.45	378.96	-171.51	338.96	397.84	-81.085	331.6	401.31	-249.87	257.13	378.16	-213.52	238.52	295.2	-304.15	281.61	312.07	-316.74	253.87	280.11	-333.36	261.23	343.41	-246.86	127.24	418.82	-201.58	91.409	311.9	-156.6	58.908	371.17	44.733	684.38	82.104	146.09	610.2	89.209	74.117	601.54	96.994	111.94	692.41	71.265	133.85	518.82	105.17	134.81	509.04	228.56	58.467	333.49	105.22	131.9	250.25	112.09	67.54	256.28	114.05	123.27	325.99	102.92	114.12	99.309	129.38	118.07	111.45	223.55	38.809	69.376	177	45.37	46.22	212.6	42.385	40.089	150.62	226.64	41.935	112.28	257.55	53.97	227.82	314.36	64.478	178.48	-33.609	1548.6	257.48	-112.48	1289.2	248.11
274	1.1375	152.79	1276.1	241.31	39.994	1504.1	424.21	5.6838	1484.6	73.631	50.361	1829.3	232.14	119.89	988.65	385.86	119.35	1017.3	137.98	-93.759	1019	285.82	-87.35	1028.2	205.01	33.446	903.54	443.82	12.927	925.6	68	32.793	1080.5	427.69	15.299	1090.9	91.631	-109.7	980.93	243.1	63.453	645.33	442.33	153.19	573.4	422.32	77.159	555.95	429.94	144.76	683.11	437.96	95.605	491.3	426.17	95.33	485.48	290.13	-109.91	387.44	411.24	-119.2	282.4	378.62	-160.91	339.82	397.08	-70.495	332.78	400.85	-238.89	257.65	377.4	-202.34	238.81	294.63	-293.31	281.25	310.99	-305.59	253.16	279.24	-322.4	260.91	342.46	-234.97	128.29	419.05	-189.32	91.883	312.45	-144.17	60.063	372.04	48.223	684.91	82.047	149.09	610.1	89.152	77.068	601.92	96.948	115.48	692.53	71.205	136.21	518.72	105.15	137.13	508.99	228.56	59.704	333.79	105.42	132.73	250.21	112.1	68.428	256.53	114.24	124.47	325.97	102.95	114.23	99.427	129.53	118.23	111.49	223.67	38.82	69.467	177.07	45.385	46.257	212.63	42.417	40.21	150.67	226.67	41.963	112.25	257.61	53.749	227.86	314.4	64.213	178.49	-28.293	1549.4	256.89	-107.31	1290.1	247.33
275	1.1417	157.95	1276.8	241.38	44.78	1505	423.86	11.539	1485.3	73.173	55.826	1830.1	231.62	124.89	989.6	385.57	124.42	1017.9	137.65	-88.772	1019.8	285.47	-82.279	1028.9	204.65	38.653	904.48	443.6	17.738	926.19	67.769	37.579	1081.4	427.34	20.488	1091.7	91.31	-104.69	981.69	242.73	71.551	646.52	441.92	162.09	575.56	422.03	86.22	557.28	429.47	152.46	685.16	437.74	105.41	493.04	425.76	105.41	487.26	289.71	-99.495	388.33	410.44	-108.19	283.13	378.3	-150.21	340.4	396.34	-59.806	333.81	400.39	-227.7	257.76	376.69	-190.96	238.81	294.07	-282.32	280.45	309.99	-294.26	252.01	278.44	-311.24	260.07	341.59	-222.66	128.94	419.23	-176.63	92.109	312.9	-131.23	61.056	372.75	51.651	685.47	82.006	152.02	610	89.111	79.946	602.29	96.907	118.96	692.64	71.163	138.48	518.6	105.15	139.38	508.92	228.56	60.883	334.09	105.61	133.51	250.17	112.11	69.279	256.77	114.43	125.61	325.97	102.99	114.33	99.547	129.68	118.37	111.54	223.8	38.829	69.561	177.15	45.397	46.298	212.66	42.449	40.335	150.72	226.7	41.992	112.22	257.67	53.537	227.91	314.45	63.961	178.51	-22.984	1550.2	256.31	-102.15	1291	246.56
276	1.1458	163.11	1277.5	241.45	49.552	1505.9	423.53	17.383	1486.1	72.731	61.299	1830.9	231.12	129.88	990.59	385.29	129.49	1018.5	137.33	-83.78	1020.6	285.13	-77.209	1029.7	204.31	43.855	905.46	443.4	22.528	926.78	67.558	42.361	1082.3	427	25.669	1092.5	90.996	-99.682	982.48	242.39	79.594	647.76	441.52	170.9	577.77	421.71	95.203	558.69	429.02	160.1	687.24	437.51	115.12	494.83	425.34	115.36	489.12	289.29	-89.053	389.01	409.67	-97.017	283.66	377.99	-139.42	340.71	395.63	-49.022	334.69	399.94	-216.29	257.49	376.03	-179.4	238.52	293.53	-271.19	279.21	309.09	-282.76	250.43	277.73	-299.88	258.74	340.81	-209.94	129.19	419.36	-163.54	92.095	313.25	-117.83	61.877	373.32	55.021	686.04	81.978	154.88	609.89	89.083	82.755	602.67	96.869	122.39	692.76	71.136	140.68	518.49	105.15	141.55	508.85	228.58	62.009	334.38	105.79	134.26	250.14	112.13	70.097	257.01	114.62	126.7	325.96	103.02	114.42	99.67	129.83	118.51	111.58	223.92	38.837	69.658	177.22	45.406	46.342	212.7	42.481	40.464	150.77	226.72	42.019	112.19	257.73	53.333	227.95	314.49	63.719	178.52	-17.68	1551.1	255.75	-97	1291.9	245.79
277	1.15	168.25	1278.3	241.53	54.312	1506.8	423.2	23.216	1486.8	72.305	66.78	1831.6	230.63	134.86	991.61	385.02	134.56	1019.1	137	-78.783	1021.4	284.81	-72.141	1030.5	203.98	49.058	906.48	443.21	27.297	927.37	67.369	47.143	1083.3	426.68	30.847	1093.3	90.69	-94.664	983.28	242.08	87.583	649.07	441.14	179.63	580.03	421.36	104.11	560.15	428.58	167.69	689.36	437.25	124.76	496.66	424.9	125.16	491.06	288.86	-78.582	389.47	408.93	-85.685	283.99	377.69	-128.54	340.75	394.96	-38.146	335.41	399.5	-204.68	256.84	375.43	-167.64	237.96	293	-259.9	277.56	308.28	-271.09	248.44	277.1	-288.32	256.93	340.13	-196.82	129.05	419.44	-150.07	91.847	313.5	-103.97	62.522	373.72	58.337	686.63	81.959	157.67	609.78	89.065	85.5	603.05	96.831	125.76	692.87	71.122	142.8	518.38	105.16	143.67	508.77	228.59	63.088	334.67	105.96	134.98	250.12	112.14	70.888	257.24	114.81	127.75	325.97	103.05	114.52	99.794	129.97	118.65	111.63	224.04	38.845	69.759	177.29	45.412	46.391	212.74	42.512	40.594	150.82	226.75	42.043	112.17	257.79	53.136	227.99	314.53	63.485	178.53	-12.382	1551.9	255.19	-91.853	1292.8	245.02
278	1.1542	173.38	1279	241.6	59.06	1507.7	422.87	29.04	1487.6	71.893	72.266	1832.4	230.17	139.84	992.65	384.76	139.62	1019.7	136.67	-73.778	1022.2	284.51	-67.071	1031.2	203.68	54.266	907.54	443.05	32.047	927.95	67.201	51.927	1084.2	426.36	36.023	1094.1	90.392	-89.638	984.09	241.8	95.52	650.41	440.77	188.26	582.32	420.97	112.94	561.67	428.15	175.23	691.5	436.98	134.31	498.52	424.45	134.82	493.06	288.42	-68.084	389.71	408.24	-74.201	284.12	377.4	-117.56	340.52	394.34	-27.182	335.97	399.07	-192.87	255.83	374.88	-155.71	237.13	292.5	-248.48	275.5	307.57	-259.24	246.07	276.56	-276.56	254.66	339.55	-183.32	128.54	419.46	-136.23	91.376	313.64	-89.693	62.988	373.98	61.603	687.24	81.948	160.39	609.66	89.054	88.183	603.43	96.79	129.09	692.98	71.116	144.84	518.27	105.18	145.75	508.69	228.62	64.125	334.95	106.11	135.67	250.1	112.16	71.653	257.46	114.99	128.75	325.98	103.08	114.61	99.92	130.11	118.77	111.68	224.16	38.852	69.862	177.37	45.415	46.444	212.77	42.544	40.728	150.87	226.78	42.064	112.15	257.85	52.944	228.03	314.58	63.256	178.55	-7.0905	1552.7	254.65	-86.709	1293.7	244.26
